<svg width="42" height="50" viewBox="0 0 42 50" fill="none" xmlns="http://www.w3.org/2000/svg">
<path d="M14.0913 50C6.6498 49.9571 0.494335 34.7665 0.494335 27.0302C0.494335 14.3931 9.97431 11.6265 13.6278 11.6265C15.2743 11.6265 17.0324 12.2731 18.5831 12.8453C19.6675 13.2444 20.789 13.6564 21.4127 13.6564C21.786 13.6564 22.6658 13.3059 23.4426 12.9984C25.0991 12.3389 27.1604 11.5193 29.5608 11.5193C29.5651 11.5193 29.5709 11.5193 29.5751 11.5193C31.3675 11.5193 36.802 11.9126 40.0693 16.8193L40.8347 17.9694L39.7332 18.8005C38.1597 19.9878 35.2886 22.1537 35.2886 26.4438C35.2886 31.525 38.5401 33.4791 40.1022 34.4189C40.7918 34.8337 41.5056 35.2615 41.5056 36.197C41.5056 36.8079 36.6304 49.9242 29.5508 49.9242C27.8185 49.9242 26.5939 49.4035 25.5139 48.9443C24.421 48.4793 23.4782 48.0789 21.9204 48.0789C21.1308 48.0789 20.1322 48.4522 19.0751 48.8485C17.6305 49.3876 15.9953 50 14.1399 50H14.0913Z" fill="white"/>
<path d="M30.3109 0C30.4952 6.64805 25.7408 11.2602 20.992 10.9709C20.2095 5.66553 25.7402 0 30.3109 0Z" fill="white"/>
</svg>
