<svg width="50" height="50" viewBox="0 0 50 50" fill="none" xmlns="http://www.w3.org/2000/svg">
<g clip-path="url(#clip0_8_136)">
<path d="M28.7685 25.0044L3.6597 49.1825C2.48389 48.3789 1.78579 47.0423 1.79813 45.6182V4.39054C1.78579 2.96646 2.48389 1.62985 3.6597 0.826294L28.7685 25.0044Z" fill="#2196F3"/>
<path d="M37.5543 16.5591L28.7685 25.0044L3.6597 0.82633C3.7543 0.753009 3.85285 0.684795 3.95479 0.622009C5.28182 -0.182296 6.93938 -0.208262 8.29099 0.553901L37.5543 16.5591Z" fill="#4CAF50"/>
<path d="M48.2018 25.0044C48.2182 26.612 47.3446 28.097 45.9316 28.8638L37.5544 33.4497L28.7686 25.0044L37.5544 16.5591L45.9316 21.1449C47.3446 21.9118 48.2182 23.3967 48.2018 25.0044Z" fill="#FFC107"/>
<path d="M37.5543 33.4497L8.29099 49.4549C6.9364 50.2053 5.28512 50.1793 3.95479 49.3868C3.85285 49.324 3.7543 49.2558 3.6597 49.1825L28.7686 25.0044L37.5543 33.4497Z" fill="#F44336"/>
</g>
<defs>
<clipPath id="clip0_8_136">
<rect width="50" height="50" fill="white"/>
</clipPath>
</defs>
</svg>
